<?xml version="1.0" encoding="iso-8859-1"?>
<!-- Generator: Adobe Illustrator 19.0.0, SVG Export Plug-In . SVG Version: 6.00 Build 0)  -->
<svg version="1.1" id="Capa_1" xmlns="http://www.w3.org/2000/svg" xmlns:xlink="http://www.w3.org/1999/xlink" x="0px" y="0px"
	 viewBox="0 0 512 512" style="enable-background:new 0 0 512 512;" xml:space="preserve">
<g>
	<g>
		<g>
			<path d="M469.333,64H42.667C19.135,64,0,83.135,0,106.667v298.667C0,428.865,19.135,448,42.667,448h426.667
				C492.865,448,512,428.865,512,405.333V106.667C512,83.135,492.865,64,469.333,64z M490.667,405.333
				c0,11.76-9.573,21.333-21.333,21.333H42.667c-11.76,0-21.333-9.573-21.333-21.333V106.667c0-11.76,9.573-21.333,21.333-21.333
				h426.667c11.76,0,21.333,9.573,21.333,21.333V405.333z"/>
			<path d="M224,106.667H53.333c-5.896,0-10.667,4.771-10.667,10.667v277.333c0,5.896,4.771,10.667,10.667,10.667H224
				c5.896,0,10.667-4.771,10.667-10.667V117.333C234.667,111.438,229.896,106.667,224,106.667z M213.333,384H64V128h149.333V384z"/>
			<path d="M464.323,246.958l-85.333-53.333c-3.302-2.073-7.458-2.167-10.823-0.292c-3.396,1.885-5.5,5.458-5.5,9.333V224h-96
				c-5.896,0-10.667,4.771-10.667,10.667v42.667c0,5.896,4.771,10.667,10.667,10.667h96v21.333c0,3.875,2.104,7.448,5.5,9.333
				c1.604,0.885,3.385,1.333,5.167,1.333c1.969,0,3.927-0.542,5.656-1.625l85.333-53.333c3.115-1.948,5.01-5.365,5.01-9.042
				S467.438,248.906,464.323,246.958z M384,290.083v-12.75c0-5.896-4.771-10.667-10.667-10.667h-96v-21.333h96
				c5.896,0,10.667-4.771,10.667-10.667v-12.75L438.542,256L384,290.083z"/>
			<circle cx="181.333" cy="245.333" r="10.667"/>
		</g>
	</g>
</g>
<g>
</g>
<g>
</g>
<g>
</g>
<g>
</g>
<g>
</g>
<g>
</g>
<g>
</g>
<g>
</g>
<g>
</g>
<g>
</g>
<g>
</g>
<g>
</g>
<g>
</g>
<g>
</g>
<g>
</g>
</svg>
