<?xml version="1.0"?>
<svg xmlns="http://www.w3.org/2000/svg" id="Outline" viewBox="0 0 512 512" width="512" height="512"><path d="M456,309.1V264a72.081,72.081,0,0,0-72-72H360V156.65A40.051,40.051,0,0,0,384,120V84.249a40.085,40.085,0,0,0-35.132-39.7L96.9,16.051a8,8,0,0,0-8.762,9.423l24,128A8,8,0,0,0,120,160h97.533L231.5,225.156A31.971,31.971,0,0,0,218.868,280a31.934,31.934,0,0,0,0,48,31.969,31.969,0,0,0,10.556,54.2A31.984,31.984,0,0,0,256,432h65.61A80.136,80.136,0,0,0,400,496a8,8,0,0,0,0-16,64.116,64.116,0,0,1-61.975-48H388.37l53.609,61.268A8,8,0,0,0,448,496h40a8,8,0,0,0,8-8V360a8,8,0,0,0-1.854-5.122ZM126.64,144,105.858,33.166l39.1,4.422L166.242,144Zm55.918,0-20.9-104.524L346.977,60.434A24.039,24.039,0,0,1,368,84.249V120a24.027,24.027,0,0,1-24,24ZM240,240h16a16,16,0,0,1,0,32H240a16,16,0,0,1,0-32Zm32,176H256a16,16,0,0,1,0-32h16a16,16,0,0,1,0,32Zm8-48H240a16,16,0,0,1,0-32h40a16,16,0,0,1,0,32Zm8-48H240a16,16,0,0,1,0-32h48a16,16,0,0,1,0,32Zm32,96H299.7a31.885,31.885,0,0,0,0-32H320Zm0-48H307.7a31.9,31.9,0,0,0-3.217-36.58A31.993,31.993,0,0,0,288,272H283.7A31.976,31.976,0,0,0,256,224h-8.39L233.9,160H344v32a40,40,0,0,0-8.026,79.19c.25,9.667,1.68,27.047,8.026,43.861V344A24.028,24.028,0,0,1,320,368ZM480,480H451.63l-53.609-61.268A8,8,0,0,0,392,416H336V380.65A40.051,40.051,0,0,0,360,344v-2.649a57.567,57.567,0,0,0,11.884,9.509l0-.007a7.992,7.992,0,1,0,8.224-13.706l0-.007c-9.591-5.754-15.929-15.065-20.116-25.132V312h0c-6.066-14.588-7.609-30.757-7.958-40H376a8,8,0,0,0,0-16H344a24,24,0,0,1,0-48h40a56.064,56.064,0,0,1,56,56v48a8,8,0,0,0,1.854,5.122L480,362.9Z"/><path d="M73.373,64.971a8,8,0,0,0-11.314,0,48,48,0,0,0,0,67.882,8,8,0,0,0,11.314-11.314,32,32,0,0,1,0-45.255A8,8,0,0,0,73.373,64.971Z"/><path d="M39.432,42.343a80.091,80.091,0,0,0,0,113.137,8,8,0,0,0,11.313-11.313,64.074,64.074,0,0,1,0-90.51A8,8,0,0,0,39.432,42.343Z"/></svg>
